<svg width="19" height="19" viewBox="0 0 19 19" fill="none" xmlns="http://www.w3.org/2000/svg">
<path fill-rule="evenodd" clip-rule="evenodd" d="M1.27146 4.81397C1.67334 4.64174 2.13874 4.8279 2.31097 5.22977L1.58332 5.54163C2.31097 5.22977 2.31108 5.23003 2.31097 5.22977L2.31057 5.22882C2.31034 5.22831 2.31051 5.22868 2.31057 5.22882L2.31366 5.23584C2.31684 5.24298 2.32229 5.2551 2.33004 5.27189C2.34556 5.30547 2.37024 5.35763 2.40428 5.4257C2.47241 5.56196 2.57764 5.76128 2.72127 6.00259C3.00944 6.4867 3.44725 7.13148 4.04365 7.77377C4.18423 7.92516 4.333 8.07582 4.49014 8.22383C4.49671 8.2298 4.5032 8.2359 4.50962 8.24213C5.68499 9.34273 7.32473 10.2916 9.49998 10.2916C10.4571 10.2916 11.3037 10.1089 12.0499 9.81519C13.0205 9.43316 13.834 8.85801 14.4999 8.23306C15.2516 7.52743 15.8038 6.76874 16.1684 6.18366C16.35 5.89226 16.4831 5.64706 16.5695 5.47757C16.6127 5.39292 16.6441 5.32742 16.6639 5.28481C16.6739 5.26352 16.6809 5.24797 16.6851 5.23863L16.689 5.22977C16.8613 4.82812 17.3267 4.64178 17.7285 4.81397C18.1304 4.9862 18.3165 5.4516 18.1443 5.85348L17.4167 5.54163C18.1443 5.85348 18.1444 5.8533 18.1443 5.85348L18.1426 5.85745L18.1398 5.86396L18.1307 5.88442C18.1232 5.90131 18.1126 5.92461 18.099 5.95386C18.0717 6.01233 18.0321 6.09464 17.98 6.19692C17.8758 6.40129 17.7207 6.68644 17.5122 7.02099C17.1935 7.53253 16.7454 8.16695 16.1576 8.80669L16.7889 9.438C17.0981 9.74716 17.0981 10.2484 16.7889 10.5576C16.4798 10.8667 15.9785 10.8667 15.6694 10.5576L15.0042 9.89244C14.5575 10.2532 14.0576 10.5935 13.5025 10.8871L14.1219 11.839C14.3603 12.2055 14.2566 12.6959 13.8901 12.9344C13.5236 13.1728 13.0332 13.069 12.7948 12.7026L12.0146 11.5036C11.4771 11.6683 10.9028 11.7851 10.2917 11.8399V13.0625C10.2917 13.4997 9.93721 13.8541 9.49998 13.8541C9.06276 13.8541 8.70832 13.4997 8.70832 13.0625V11.84C8.09506 11.7852 7.52097 11.6682 6.98517 11.5039L6.20521 12.7026C5.96676 13.069 5.47636 13.1728 5.10989 12.9344C4.74341 12.6959 4.63963 12.2055 4.87809 11.839L5.49749 10.8871C4.94323 10.5938 4.44321 10.2534 3.99593 9.89227L3.33061 10.5576C3.02144 10.8667 2.52019 10.8667 2.21102 10.5576C1.90186 10.2484 1.90186 9.74716 2.21102 9.438L2.84233 8.80669C2.17338 8.07855 1.68446 7.35631 1.36073 6.81244C1.19512 6.53421 1.0715 6.30058 0.988103 6.13379C0.946375 6.05033 0.914625 5.98343 0.892641 5.93583C0.881647 5.91203 0.873086 5.89304 0.866934 5.8792L0.859504 5.86235L0.857136 5.8569L0.856287 5.85494L0.855946 5.85414C0.855799 5.8538 0.855661 5.85348 1.58332 5.54163L0.855946 5.85414C0.683714 5.45227 0.869591 4.9862 1.27146 4.81397Z" fill="#9747FF"/>
</svg>
