<svg width="19" height="19" viewBox="0 0 19 19" fill="none" xmlns="http://www.w3.org/2000/svg">
<path fill-rule="evenodd" clip-rule="evenodd" d="M3.3025 2.51075C2.375 3.43824 2.375 4.93102 2.375 7.91658V11.0833C2.375 14.0688 2.375 15.5616 3.3025 16.4891C4.22999 17.4166 5.72277 17.4166 8.70833 17.4166H10.2917C13.2772 17.4166 14.77 17.4166 15.6975 16.4891C16.625 15.5616 16.625 14.0688 16.625 11.0833V7.91658C16.625 4.93102 16.625 3.43824 15.6975 2.51075C14.77 1.58325 13.2772 1.58325 10.2917 1.58325H8.70833C5.72277 1.58325 4.22999 1.58325 3.3025 2.51075ZM6.33333 7.32283C6.00541 7.32283 5.73958 7.58867 5.73958 7.91658C5.73958 8.2445 6.00541 8.51033 6.33333 8.51033H12.6667C12.9946 8.51033 13.2604 8.2445 13.2604 7.91658C13.2604 7.58867 12.9946 7.32283 12.6667 7.32283H6.33333ZM6.33333 10.4895C6.00541 10.4895 5.73958 10.7553 5.73958 11.0833C5.73958 11.4112 6.00541 11.677 6.33333 11.677H10.2917C10.6196 11.677 10.8854 11.4112 10.8854 11.0833C10.8854 10.7553 10.6196 10.4895 10.2917 10.4895H6.33333Z" fill="#9747FF"/>
</svg>
