<svg width="30" height="30" viewBox="0 0 30 30" fill="none" xmlns="http://www.w3.org/2000/svg">
<path fill-rule="evenodd" clip-rule="evenodd" d="M4.375 11.9595V18.0405C4.375 20.9072 4.375 22.3405 5.27703 23.2311C6.09648 24.0401 7.36965 24.1142 9.77284 24.1209C9.76629 24.0776 9.76003 24.0339 9.75405 23.99C9.61046 22.9355 9.61048 21.5949 9.61051 19.9316L9.61051 19.8649C9.61051 19.3611 10.0242 18.9527 10.5344 18.9527C11.0447 18.9527 11.4583 19.3611 11.4583 19.8649C11.4583 21.6106 11.4603 22.8282 11.5854 23.7469C11.7069 24.6393 11.9292 25.1119 12.2702 25.4485C12.6111 25.7851 13.0898 26.0046 13.9937 26.1246C14.9242 26.2481 16.1575 26.25 17.9257 26.25H19.1576C20.9259 26.25 22.1591 26.2481 23.0896 26.1246C23.9936 26.0046 24.4722 25.7851 24.8132 25.4485C25.1541 25.1119 25.3764 24.6393 25.4979 23.7469C25.623 22.8282 25.625 21.6106 25.625 19.8649V10.1351C25.625 8.38936 25.623 7.17179 25.4979 6.25312C25.3764 5.36069 25.1541 4.8881 24.8132 4.5515C24.4722 4.21489 23.9936 3.99543 23.0896 3.87545C22.1591 3.75194 20.9259 3.75 19.1576 3.75H17.9257C16.1575 3.75 14.9242 3.75194 13.9937 3.87545C13.0898 3.99543 12.6111 4.21489 12.2702 4.5515C11.9292 4.8881 11.7069 5.36069 11.5854 6.25312C11.4603 7.17179 11.4583 8.38936 11.4583 10.1351C11.4583 10.6389 11.0447 11.0473 10.5344 11.0473C10.0242 11.0473 9.61051 10.6389 9.61051 10.1351L9.61051 10.0684C9.61048 8.40511 9.61046 7.06445 9.75405 6.01003C9.76003 5.9661 9.76629 5.92244 9.77284 5.87906C7.36965 5.88584 6.09648 5.9599 5.27703 6.76893C4.375 7.65949 4.375 9.09281 4.375 11.9595ZM16.7312 18.6855L19.8109 15.645C20.1717 15.2888 20.1717 14.7112 19.8109 14.355L16.7312 11.3145C16.3704 10.9582 15.7854 10.9582 15.4246 11.3145C15.0638 11.6707 15.0638 12.2482 15.4246 12.6045L16.9271 14.0878H8.07065C7.56039 14.0878 7.14674 14.4962 7.14674 15C7.14674 15.5038 7.56039 15.9122 8.07065 15.9122H16.9271L15.4246 17.3955C15.0638 17.7518 15.0638 18.3293 15.4246 18.6855C15.7854 19.0418 16.3704 19.0418 16.7312 18.6855Z" fill="#94A3B8"/>
</svg>
