<svg width="39" height="46" viewBox="0 0 39 46" fill="none" xmlns="http://www.w3.org/2000/svg">
<path d="M19.1631 45.2814C15.1935 45.2814 11.5496 43.9459 9.20356 41.9514C8.01203 42.3092 6.48793 42.8848 5.52634 43.5989C4.70285 44.2095 4.80578 44.8322 4.95401 45.0834C5.60521 46.188 16.126 45.7888 19.1631 45.445V45.2814ZM19.1631 45.2814C23.1333 45.2814 26.7769 43.9459 29.1233 41.9514C30.3142 42.3092 31.8386 42.8848 32.8005 43.5989C33.6234 44.2095 33.5207 44.8322 33.3722 45.0834C32.721 46.188 22.2005 45.7888 19.1631 45.445V45.2814Z" fill="#FAAB07"/>
<path d="M19.1862 21.3674C25.7419 21.3229 30.9958 20.0472 32.7761 19.5582C33.2005 19.4414 33.4273 19.2323 33.4273 19.2323C33.4289 19.1721 33.4542 18.1594 33.4542 17.6373C33.4542 8.83999 29.3228 0.000318352 19.1622 0C9.00149 0.000318352 4.86976 8.8403 4.86976 17.637C4.86976 18.1597 4.8951 19.1721 4.897 19.2319C4.897 19.2319 5.08166 19.4277 5.41961 19.5226C7.06343 19.9823 12.4161 21.3213 19.1378 21.3674H19.1862ZM37.0006 28.6959C36.5943 27.3814 36.0397 25.8486 35.4778 24.3765C35.4778 24.3765 35.1547 24.3364 34.991 24.3838C29.9509 25.8556 23.8415 26.7937 19.1862 26.7371H19.1378C14.5085 26.7928 8.44057 25.8657 3.41725 24.4083C3.22531 24.3526 2.8465 24.3765 2.8465 24.3765C2.28462 25.8486 1.73003 27.3817 1.32367 28.6959C-0.614397 34.9642 0.0136767 37.5582 0.49162 37.6161C1.51751 37.7409 4.4843 32.8978 4.4843 32.8978C4.4843 37.8192 8.90489 45.3756 19.0279 45.445H19.2964C29.4191 45.3756 33.8397 37.8192 33.8397 32.8978C33.8397 32.8978 36.8068 37.7409 37.8327 37.6164C38.3103 37.5582 38.9384 34.9639 37.0006 28.6959Z" fill="#9747FF"/>
<path d="M15.5467 12.9964C14.1683 13.0591 12.9907 11.481 12.9166 9.47446C12.8418 7.46725 13.8978 5.78922 15.2762 5.72651C16.653 5.66443 17.8303 7.24186 17.9051 9.24907C17.9804 11.2566 16.9241 12.9346 15.5467 12.9964ZM25.4074 9.47446C25.3336 11.4807 24.156 13.0591 22.7776 12.9964C21.3998 12.9343 20.3439 11.2566 20.4193 9.24939C20.494 7.24218 21.671 5.66475 23.0481 5.72651C24.4265 5.78922 25.4825 7.46725 25.4074 9.47446Z" fill="white"/>
<path d="M27.857 15.83C27.489 15.0103 23.7791 14.0966 19.1869 14.0966H19.1374C14.5449 14.0966 10.8354 15.0103 10.467 15.8304C10.4496 15.8668 10.4404 15.9067 10.4401 15.9472C10.4407 16.0038 10.4584 16.0588 10.4908 16.1051C10.8011 16.5594 14.9202 18.8069 19.1374 18.8069H19.1869C23.4038 18.8069 27.5228 16.56 27.8332 16.1051C27.8659 16.0587 27.8835 16.0034 27.8839 15.9465C27.8836 15.9063 27.8744 15.8666 27.857 15.8304" fill="#FAAB07"/>
<path d="M17.2409 9.50407C17.3039 10.2968 16.8713 11.001 16.2761 11.0777C15.6797 11.1547 15.146 10.5747 15.0827 9.78199C15.0203 8.98866 15.4523 8.28446 16.0465 8.20806C16.6438 8.13038 17.1785 8.71105 17.2409 9.50375V9.50407ZM21.0277 9.76894C21.1496 9.54959 21.9791 8.3962 23.6968 8.81611C24.1481 8.92658 24.3568 9.08894 24.4008 9.15261C24.4658 9.24684 24.4838 9.38118 24.4176 9.56201C24.2871 9.92047 24.0176 9.9106 23.8684 9.84056C23.7718 9.79536 22.5755 8.99375 21.4733 10.1898C21.3973 10.2716 21.2617 10.2999 21.1335 10.2025C21.0046 10.1045 20.9517 9.90646 21.0277 9.76894Z" fill="#9747FF"/>
<path d="M19.1862 26.4486H19.1378C15.9717 26.4869 12.133 26.0654 8.41523 25.3287C8.09723 27.1809 7.90529 29.5093 8.06999 32.2856C8.48681 39.303 12.6331 43.7144 19.0332 43.7781H19.293C25.6934 43.7144 29.8394 39.303 30.2569 32.2856C30.4215 29.5086 30.2293 27.1809 29.911 25.3284C26.1929 26.0654 22.3532 26.4872 19.1865 26.4483" fill="white"/>
<path d="M10.1677 25.8613V32.7673C10.1677 32.7673 13.315 33.4053 16.4684 32.9634V26.5935C14.4708 26.4798 12.3164 26.2268 10.1677 25.8613Z" fill="#EB1923"/>
<path d="M33.4273 19.2323C33.4273 19.2323 27.3049 21.1748 19.1862 21.2299H19.1378C11.0324 21.1752 4.9179 19.2386 4.897 19.2323L2.8465 24.3762C7.97529 25.9304 14.3314 26.9319 19.1378 26.8736H19.1862C23.9926 26.9319 30.3484 25.9304 35.4778 24.3762L33.4273 19.2323Z" fill="#EB1923"/>
</svg>
