<svg width="19" height="19" viewBox="0 0 19 19" fill="none" xmlns="http://www.w3.org/2000/svg">
<path d="M7.71873 9.50008C7.71873 8.51632 8.51622 7.71883 9.49998 7.71883C10.4837 7.71883 11.2812 8.51632 11.2812 9.50008C11.2812 10.4838 10.4837 11.2813 9.49998 11.2813C8.51622 11.2813 7.71873 10.4838 7.71873 9.50008Z" fill="#9747FF"/>
<path fill-rule="evenodd" clip-rule="evenodd" d="M1.58331 9.50008C1.58331 10.7979 1.91974 11.235 2.5926 12.1092C3.93612 13.8546 6.18932 15.8334 9.49998 15.8334C12.8106 15.8334 15.0638 13.8546 16.4074 12.1092C17.0802 11.235 17.4166 10.7979 17.4166 9.50008C17.4166 8.20224 17.0802 7.76516 16.4074 6.89101C15.0638 5.14557 12.8106 3.16675 9.49998 3.16675C6.18932 3.16675 3.93612 5.14557 2.5926 6.89101C1.91974 7.76517 1.58331 8.20224 1.58331 9.50008ZM9.49998 6.53133C7.86038 6.53133 6.53123 7.86049 6.53123 9.50008C6.53123 11.1397 7.86038 12.4688 9.49998 12.4688C11.1396 12.4688 12.4687 11.1397 12.4687 9.50008C12.4687 7.86049 11.1396 6.53133 9.49998 6.53133Z" fill="#9747FF"/>
</svg>
