<svg width="204" height="244" viewBox="0 0 204 244" fill="none" xmlns="http://www.w3.org/2000/svg">
<path d="M102.157 240.218C81.1309 240.218 61.8291 233.134 49.4024 222.553C43.0909 224.452 35.0179 227.505 29.9244 231.293C25.5624 234.532 26.1077 237.835 26.8928 239.168C30.3422 245.028 86.07 242.91 102.157 241.086V240.218ZM102.157 240.218C123.187 240.218 142.487 233.134 154.916 222.553C161.224 224.452 169.299 227.505 174.394 231.293C178.752 234.532 178.209 237.835 177.422 239.168C173.973 245.028 118.246 242.91 102.157 241.086V240.218Z" fill="#FAAB07"/>
<path d="M102.28 113.359C137.005 113.123 164.834 106.356 174.265 103.762C176.513 103.142 177.714 102.033 177.714 102.033C177.722 101.713 177.857 96.3413 177.857 93.5717C177.857 46.9035 155.973 0.010722 102.152 0.0090332C48.332 0.010722 26.4466 46.9052 26.4466 93.57C26.4466 96.343 26.5808 101.713 26.5908 102.031C26.5908 102.031 27.5689 103.069 29.359 103.573C38.0663 106.011 66.4192 113.114 102.023 113.359H102.28ZM196.642 152.235C194.489 145.262 191.552 137.131 188.575 129.322C188.575 129.322 186.864 129.109 185.997 129.361C159.3 137.168 126.939 142.145 102.28 141.844H102.023C77.5021 142.14 45.3609 137.222 18.7527 129.491C17.736 129.195 15.7295 129.322 15.7295 129.322C12.7532 137.131 9.81561 145.264 7.66313 152.235C-2.60266 185.488 0.7242 199.248 3.25584 199.555C8.68988 200.217 24.4048 174.526 24.4048 174.526C24.4048 200.633 47.8204 240.718 101.441 241.086H102.864C156.483 240.718 179.898 200.633 179.898 174.526C179.898 174.526 195.615 200.217 201.049 199.557C203.579 199.248 206.906 185.486 196.642 152.235Z" fill="#334155"/>
<path d="M83.0015 68.9524C75.7002 69.2851 69.4626 60.9137 69.07 50.2693C68.674 39.6214 74.2675 30.7198 81.5688 30.3871C88.8617 30.0578 95.0977 38.4257 95.4936 49.0736C95.8929 59.7231 90.2978 68.6248 83.0015 68.9524ZM135.233 50.2693C134.842 60.9121 128.605 69.2851 121.303 68.9524C114.005 68.6231 108.412 59.7232 108.811 49.0753C109.207 38.4274 115.441 30.0595 122.736 30.3871C130.037 30.7198 135.631 39.6214 135.233 50.2693Z" fill="white"/>
<path d="M148.208 83.9844C146.259 79.6357 126.608 74.7889 102.283 74.7889H102.022C77.695 74.7889 58.0459 79.6357 56.0947 83.9861C56.0024 84.1796 55.9537 84.3912 55.9521 84.6059C55.9555 84.906 56.0491 85.198 56.2205 85.4435C57.8647 87.8534 79.6831 99.7763 102.022 99.7763H102.283C124.62 99.7763 146.438 87.8568 148.083 85.4435C148.255 85.1974 148.349 84.9039 148.351 84.6025C148.349 84.3889 148.301 84.1784 148.208 83.9861" fill="#FAAB07"/>
<path d="M91.9755 50.4263C92.3094 54.6314 90.0176 58.367 86.8652 58.774C83.7062 59.1827 80.8792 56.1057 80.5437 51.9006C80.2132 47.6922 82.5016 43.9566 85.6489 43.5512C88.813 43.1392 91.645 46.2195 91.9755 50.4246V50.4263ZM112.034 51.8314C112.68 50.6678 117.074 44.5493 126.172 46.7768C128.563 47.3629 129.668 48.2241 129.901 48.5619C130.245 49.0618 130.341 49.7745 129.99 50.7337C129.299 52.6353 127.871 52.5829 127.081 52.2114C126.569 51.9716 120.233 47.7192 114.394 54.064C113.992 54.498 113.274 54.6483 112.594 54.1315C111.912 53.6114 111.631 52.561 112.034 51.8314Z" fill="#334155"/>
<path d="M102.28 140.314H102.023C85.253 140.517 64.9194 138.281 45.2266 134.373C43.5422 144.198 42.5255 156.55 43.3979 171.278C45.6058 208.504 67.5684 231.906 101.47 232.244H102.845C136.748 231.906 158.709 208.504 160.92 171.278C161.793 156.547 160.774 144.198 159.088 134.371C139.394 138.281 119.055 140.519 102.282 140.312" fill="white"/>
<path d="M54.5093 137.198V173.833C54.5093 173.833 71.1805 177.218 87.8836 174.874V141.083C77.3024 140.48 65.8908 139.137 54.5093 137.198Z" fill="#EB1923"/>
<path d="M177.714 102.033C177.714 102.033 145.284 112.338 102.28 112.63H102.023C59.0894 112.339 26.7016 102.066 26.5908 102.033L15.7295 129.32C42.8963 137.565 76.5642 142.878 102.023 142.569H102.28C127.739 142.878 161.405 137.565 188.575 129.32L177.714 102.033Z" fill="#EB1923"/>
</svg>
