<svg width="30" height="30" viewBox="0 0 30 30" fill="none" xmlns="http://www.w3.org/2000/svg">
<path fill-rule="evenodd" clip-rule="evenodd" d="M15.065 1.5625H14.935C13.8119 1.56247 12.8754 1.56244 12.1319 1.66239C11.3472 1.7679 10.6387 1.99999 10.0693 2.56932C9.49999 3.13866 9.2679 3.84716 9.16239 4.63191C9.06243 5.37538 9.06246 6.31189 9.0625 7.43498V7.53215C6.53603 7.61481 5.01889 7.91004 3.96447 8.96447C2.5 10.4289 2.5 12.786 2.5 17.5C2.5 22.214 2.5 24.5711 3.96447 26.0355C5.42893 27.5 7.78595 27.5 12.5 27.5H17.5C22.214 27.5 24.5711 27.5 26.0355 26.0355C27.5 24.5711 27.5 22.214 27.5 17.5C27.5 12.786 27.5 10.4289 26.0355 8.96447C24.9811 7.91004 23.464 7.61481 20.9375 7.53215V7.43501C20.9375 6.31193 20.9376 5.37537 20.8376 4.63191C20.7321 3.84716 20.5 3.13866 19.9307 2.56932C19.3613 1.99999 18.6528 1.7679 17.8681 1.66239C17.1246 1.56244 16.1881 1.56247 15.065 1.5625ZM19.0625 7.50236V7.5C19.0625 6.29499 19.0605 5.48554 18.9793 4.88174C18.9018 4.30492 18.7678 4.05805 18.6049 3.89515C18.442 3.73225 18.1951 3.59823 17.6183 3.52067C17.0145 3.4395 16.205 3.4375 15 3.4375C13.795 3.4375 12.9855 3.4395 12.3817 3.52067C11.8049 3.59823 11.558 3.73225 11.3951 3.89515C11.2323 4.05805 11.0982 4.30492 11.0207 4.88174C10.9395 5.48554 10.9375 6.29499 10.9375 7.5V7.50236C11.4275 7.5 11.9476 7.5 12.5 7.5H17.5C18.0524 7.5 18.5725 7.5 19.0625 7.50236ZM21.25 11.25C21.25 11.9404 20.6904 12.5 20 12.5C19.3096 12.5 18.75 11.9404 18.75 11.25C18.75 10.5596 19.3096 10 20 10C20.6904 10 21.25 10.5596 21.25 11.25ZM10 12.5C10.6904 12.5 11.25 11.9404 11.25 11.25C11.25 10.5596 10.6904 10 10 10C9.30964 10 8.75 10.5596 8.75 11.25C8.75 11.9404 9.30964 12.5 10 12.5Z" fill="white"/>
</svg>
