<svg width="30" height="30" viewBox="0 0 30 30" fill="none" xmlns="http://www.w3.org/2000/svg">
<path d="M8.75 6.0367C8.75 7.97143 10.9074 10.0095 12.6872 11.3617C13.6861 12.1206 14.1855 12.5 15 12.5C15.8145 12.5 16.3139 12.1206 17.3128 11.3617C19.0926 10.0095 21.25 7.97146 21.25 6.03668C21.25 2.54897 17.8124 1.24683 15 3.94106C12.1876 1.24683 8.75 2.54897 8.75 6.0367Z" fill="#94A3B8"/>
<path d="M7.82492 26.7355H7.5C6.32149 26.7355 5.73223 26.7355 5.36612 26.3694C5 26.0032 5 25.414 5 24.2355V22.8456C5 22.1974 5 21.8733 5.16647 21.5839C5.33295 21.2945 5.58409 21.1485 6.08638 20.8563C9.39322 18.933 14.0894 17.8504 17.2238 19.7199C17.4344 19.8455 17.6238 19.9971 17.7857 20.1789C18.4833 20.9625 18.4324 22.1451 17.6284 22.8469C17.4587 22.9951 17.2777 23.1074 17.0954 23.1465C17.2452 23.1291 17.3888 23.1092 17.5257 23.0874C18.665 22.9057 19.6213 22.2969 20.4968 21.6355L22.7558 19.9291C23.5521 19.3275 24.7341 19.3274 25.5307 19.9288C26.2477 20.4702 26.467 21.3618 26.0137 22.0884C25.485 22.9359 24.7401 24.02 24.0249 24.6824C23.3087 25.3458 22.2424 25.938 21.3718 26.3582C20.4076 26.8236 19.3422 27.0918 18.2587 27.2672C16.0611 27.6229 13.7707 27.5686 11.5954 27.1205C10.3657 26.8671 9.08849 26.7355 7.82492 26.7355Z" fill="#94A3B8"/>
</svg>
