<svg width="19" height="19" viewBox="0 0 19 19" fill="none" xmlns="http://www.w3.org/2000/svg">
<path d="M2.375 5.1646C2.375 4.8523 2.63365 4.59912 2.9527 4.59912H6.74332C6.74846 3.93315 6.82064 3.02016 7.48154 2.38812C8.00166 1.89072 8.71473 1.58325 9.49999 1.58325C10.2853 1.58325 10.9983 1.89072 11.5184 2.38812C12.1793 3.02016 12.2515 3.93315 12.2567 4.59912H16.0473C16.3664 4.59912 16.625 4.8523 16.625 5.1646C16.625 5.4769 16.3664 5.73008 16.0473 5.73008H2.9527C2.63365 5.73008 2.375 5.4769 2.375 5.1646Z" fill="#9747FF"/>
<path fill-rule="evenodd" clip-rule="evenodd" d="M9.17985 17.4166H9.82015C12.0231 17.4166 13.1246 17.4166 13.8408 16.7152C14.557 16.0139 14.6302 14.8634 14.7768 12.5625L14.9879 9.24706C15.0674 7.99861 15.1072 7.37438 14.7479 6.97882C14.3886 6.58325 13.7819 6.58325 12.5685 6.58325H6.43154C5.21809 6.58325 4.61136 6.58325 4.25208 6.97882C3.8928 7.37438 3.93256 7.99861 4.01207 9.24706L4.22322 12.5625C4.36976 14.8634 4.44303 16.0139 5.1592 16.7152C5.87538 17.4166 6.97687 17.4166 9.17985 17.4166ZM8.11164 9.64913C8.07901 9.30567 7.78804 9.05507 7.46175 9.08942C7.13546 9.12377 6.8974 9.43004 6.93003 9.77351L7.32586 13.9402C7.35849 14.2836 7.64945 14.5342 7.97575 14.4999C8.30204 14.4655 8.5401 14.1593 8.50747 13.8158L8.11164 9.64913ZM11.5382 9.08942C11.8645 9.12377 12.1026 9.43004 12.07 9.77351L11.6741 13.9402C11.6415 14.2836 11.3505 14.5342 11.0243 14.4999C10.698 14.4655 10.4599 14.1593 10.4925 13.8158L10.8884 9.64913C10.921 9.30567 11.212 9.05507 11.5382 9.08942Z" fill="#9747FF"/>
</svg>
